/* XPM */
static char *ef2e8ea0676e4201ad027d379990e226TMNzZPA7Tv7wnUpm[] = {
/* columns rows colors chars-per-pixel */
"64 64 5 1 ",
"  c #523C35",
". c #FCE23B",
"X c #FB81BC",
"o c #F4B9D6",
"O c white",
/* pixels */
"oooooooooooooooooooooooooooooooooooooooooooooooooooooooooooooooo",
"oooooooooooooooooooooooooooooooooooooooooooooooooooooooooooooooo",
"oooooooooooooooooooooooooooooooooooooooooooooooooooooo   oo    o",
"ooooo    oooooooooooooooooooooooooooooooooooooooooooo OOO  XXXX ",
"     OOOO ooooooooooooooooooooooooooooooooooooooooooo OOOO XXXXX",
" OOOOOOOO ooooooooooooooooooooooooooooooooooooooooooo   O   XXXX",
" OOOOOOOOO ooooooooooooooooooooooooooooooooooooooooo XXX XXX  XX",
" OOOOOOOOO ooooooooooooooooooooooooooooooooooooooooo XXX XXX XXX",
"OOOOOOOOO oooooooooooooooooooooooooooooooooooooooooo XX  XXX    ",
"OOOOOOOOO oooooooooooooooooooooooooooooooooooooooooo XXXX   OOOO",
"OOOOOOOOOO oooooooooooooooooooooooooooooooooooooooooo XX OOOOOOO",
"OOOOOOOOOO ooooooooooooooooooooooooooooooooooooooooo O  OOOOOOOO",
"OOOOOOOOOO ooooooooooooooooooooooooooooooooooooooooo OOOOOOOOOOO",
"OOOO  OOOO ooooooooooooooooooooooooooooooooooooooooo OOOO  OOOOO",
"OOOO  OOO   ooooooooooooooooooooooooooooooooooooooo   OOO  OOOOO",
"OOOO  OOOO o ooooooooooooooooooooooooooooooooooooo o OOOO  OOOOO",
".OOOOOOO   ooooooooooooooooooooooooooooooooooooooooo   OOOOOOO..",
"OOOOOXXOO o ooooooooooooooooooooooooooooooooooooooo o OOXXOOOOOO",
"OOOOOOOO ooooooooooooooooooooooooooooooooooooooooooooo OOOOOOOOO",
"OOOOOO  ooooooooooooooooooooooooooooooooooooooooooooooo  OOOOOOO",
"      ooooooooooooooooooooooooooooooooooooooooooooooooooo       ",
"oooooooooooooooooooooooooooooooooooooooooooooooooooooooooooooooo",
"ooooooooooooooooooooooo   oo    oooooooooooooooooooooooooooooooo",
"oooooooooooooooooooooo OOO  XXXX ooooo    oooooooooooooooooooooo",
"oooooooooooooooooooooo OOOO XXXXX     OOOO ooooooooooooooooooooo",
"oooooooooooooooooooooo   O   XXXX OOOOOOOO ooooooooooooooooooooo",
"ooooooooooooooooooooo XXX XXX  XX OOOOOOOOO oooooooooooooooooooo",
"ooooooooooooooooooooo XXX XXX XXX OOOOOOOOO oooooooooooooooooooo",
"ooooooooooooooooooooo XX  XXX    OOOOOOOOO ooooooooooooooooooooo",
"ooooooooooooooooooooo XXXX   OOOOOOOOOOOOO ooooooooooooooooooooo",
"oooooooooooooooooooooo XX OOOOOOOOOOOOOOOOO oooooooooooooooooooo",
"ooooooooooooooooooooo O  OOOOOOOOOOOOOOOOOO oooooooooooooooooooo",
"ooooooooooooooooooooo OOOOOOOOOOOOOOOOOOOOO oooooooooooooooooooo",
"ooooooooooooooooooooo OOOO  OOOOOOOOO  OOOO oooooooooooooooooooo",
"oooooooooooooooooooo   OOO  OOOOOOOOO  OOO   ooooooooooooooooooo",
"ooooooooooooooooooo o OOOO  OOOOOOOOO  OOOO o oooooooooooooooooo",
"ooooooooooooooooooooo   OOOOOOO...OOOOOOO   oooooooooooooooooooo",
"oooooooooooooooooooo o OOXXOOOOOOOOOOOXXOO o ooooooooooooooooooo",
"ooooooooooooooooooooooo OOOOOOOOOOOOOOOOO oooooooooooooooooooooo",
"oooooooooooooooooooooooo  OOOOOOOOOOOOO  ooooooooooooooooooooooo",
"oooooooooooooooooooooooooo             ooooooooooooooooooooooooo",
"oooooooooooooooooooooooooooooooooooooooooooooooooooooo   oo    o",
"ooooo    oooooooooooooooooooooooooooooooooooooooooooo OOO  XXXX ",
"     OOOO ooooooooooooooooooooooooooooooooooooooooooo OOOO XXXXX",
" OOOOOOOO ooooooooooooooooooooooooooooooooooooooooooo   O   XXXX",
" OOOOOOOOO ooooooooooooooooooooooooooooooooooooooooo XXX XXX  XX",
" OOOOOOOOO ooooooooooooooooooooooooooooooooooooooooo XXX XXX XXX",
"OOOOOOOOO oooooooooooooooooooooooooooooooooooooooooo XX  XXX    ",
"OOOOOOOOO oooooooooooooooooooooooooooooooooooooooooo XXXX   OOOO",
"OOOOOOOOOO oooooooooooooooooooooooooooooooooooooooooo XX OOOOOOO",
"OOOOOOOOOO ooooooooooooooooooooooooooooooooooooooooo O  OOOOOOOO",
"OOOOOOOOOO ooooooooooooooooooooooooooooooooooooooooo OOOOOOOOOOO",
"OOOO  OOOO ooooooooooooooooooooooooooooooooooooooooo OOOO  OOOOO",
"OOOO  OOO   ooooooooooooooooooooooooooooooooooooooo   OOO  OOOOO",
"OOOO  OOOO o ooooooooooooooooooooooooooooooooooooo o OOOO  OOOOO",
".OOOOOOO   ooooooooooooooooooooooooooooooooooooooooo   OOOOOOO..",
"OOOOOXXOO o ooooooooooooooooooooooooooooooooooooooo o OOXXOOOOOO",
"OOOOOOOO ooooooooooooooooooooooooooooooooooooooooooooo OOOOOOOOO",
"OOOOOO  ooooooooooooooooooooooooooooooooooooooooooooooo  OOOOOOO",
"      ooooooooooooooooooooooooooooooooooooooooooooooooooo       ",
"oooooooooooooooooooooooooooooooooooooooooooooooooooooooooooooooo",
"oooooooooooooooooooooooooooooooooooooooooooooooooooooooooooooooo",
"oooooooooooooooooooooooooooooooooooooooooooooooooooooooooooooooo",
"oooooooooooooooooooooooooooooooooooooooooooooooooooooooooooooooo"
};
